HIERARCHY
ROOT root
{
  OFFSET 0 93.2929 0
  CHANNELS 6 Xposition Yposition Zposition Zrotation Xrotation Yrotation
  JOINT torso_1
  {
    OFFSET 0 5.07867 -1.15138
    CHANNELS 6 Xposition Yposition Zposition Zrotation Xrotation Yrotation
    JOINT torso_2
    {
      OFFSET 0 5.61661 1.07143
      CHANNELS 6 Xposition Yposition Zposition Zrotation Xrotation Yrotation
      JOINT torso_3
      {
        OFFSET -1.02604e-17 5.98978 0.11501
        CHANNELS 6 Xposition Yposition Zposition Zrotation Xrotation Yrotation
        JOINT torso_4
        {
          OFFSET -1.10457e-17 6.50583 -0.443523
          CHANNELS 6 Xposition Yposition Zposition Zrotation Xrotation Yrotation
          JOINT torso_5
          {
            OFFSET -1.97295e-17 7.60548 -1.50593
            CHANNELS 6 Xposition Yposition Zposition Zrotation Xrotation Yrotation
            JOINT torso_6
            {
              OFFSET -2.53307e-17 9.49737 -0.914492
              CHANNELS 6 Xposition Yposition Zposition Zrotation Xrotation Yrotation
              JOINT torso_7
              {
                OFFSET -2.90401e-17 10.5513 1.57691
                CHANNELS 6 Xposition Yposition Zposition Zrotation Xrotation Yrotation
                JOINT neck_1
                {
                  OFFSET -1.29193e-17 4.78644 0.715339
                  CHANNELS 6 Xposition Yposition Zposition Zrotation Xrotation Yrotation
                  JOINT neck_2
                  {
                    OFFSET -1.8116e-17 4.82109 0.421791
                    CHANNELS 6 Xposition Yposition Zposition Zrotation Xrotation Yrotation
                    JOINT head
                    {
                      OFFSET -2.00958e-17 4.83041 0.765062
                      CHANNELS 6 Xposition Yposition Zposition Zrotation Xrotation Yrotation
                      End Site
                      {
                        OFFSET 0 0.1 0
                      }
                    }
                  }
                }
                JOINT l_shoulder
                {
                  OFFSET 1.23299 -7.60731 7.53374
                  CHANNELS 6 Xposition Yposition Zposition Zrotation Xrotation Yrotation
                  JOINT l_up_arm
                  {
                    OFFSET 12.9547 3.2495 -3.26872
                    CHANNELS 6 Xposition Yposition Zposition Zrotation Xrotation Yrotation
                    JOINT l_low_arm
                    {
                      OFFSET 29.2081 0.0598081 0.137039
                      CHANNELS 6 Xposition Yposition Zposition Zrotation Xrotation Yrotation
                      JOINT l_hand
                      {
                        OFFSET 24.234 0.0496219 0.113701
                        CHANNELS 6 Xposition Yposition Zposition Zrotation Xrotation Yrotation
                        End Site
                        {
                          OFFSET 0.1 0 0
                        }
                      }
                    }
                  }
                }
                JOINT r_shoulder
                {
                  OFFSET -1.23299 -7.60729 7.53365
                  CHANNELS 6 Xposition Yposition Zposition Zrotation Xrotation Yrotation
                  JOINT r_up_arm
                  {
                    OFFSET -12.9547 3.2495 -3.26872
                    CHANNELS 6 Xposition Yposition Zposition Zrotation Xrotation Yrotation
                    JOINT r_low_arm
                    {
                      OFFSET -29.2081 0.0598081 0.137039
                      CHANNELS 6 Xposition Yposition Zposition Zrotation Xrotation Yrotation
                      JOINT r_hand
                      {
                        OFFSET -24.234 0.0496218 0.113702
                        CHANNELS 6 Xposition Yposition Zposition Zrotation Xrotation Yrotation
                        End Site
                        {
                          OFFSET -0.1 0 0
                        }
                      }
                    }
                  }
                }
              }
            }
          }
        }
      }
    }
  }
  JOINT l_up_leg
  {
    OFFSET 9.23673 -4.20556 2.0327
    CHANNELS 6 Xposition Yposition Zposition Zrotation Xrotation Yrotation
    JOINT l_low_leg
    {
      OFFSET -0.852353 -38.7721 -0.655187
      CHANNELS 6 Xposition Yposition Zposition Zrotation Xrotation Yrotation
      JOINT l_foot
      {
        OFFSET -2.32622 -40.4017 -6.04875
        CHANNELS 6 Xposition Yposition Zposition Zrotation Xrotation Yrotation
        JOINT l_toes
        {
          OFFSET 0.779096 -9.8844 12.4959
          CHANNELS 6 Xposition Yposition Zposition Zrotation Xrotation Yrotation
          End Site
          {
            OFFSET 0 0 0.1
          }
        }
      }
    }
  }
  JOINT r_up_leg
  {
    OFFSET -9.23673 -4.20556 2.0327
    CHANNELS 6 Xposition Yposition Zposition Zrotation Xrotation Yrotation
    JOINT r_low_leg
    {
      OFFSET 0.852353 -38.7721 -0.655187
      CHANNELS 6 Xposition Yposition Zposition Zrotation Xrotation Yrotation
      JOINT r_foot
      {
        OFFSET 2.32622 -40.4017 -6.04875
        CHANNELS 6 Xposition Yposition Zposition Zrotation Xrotation Yrotation
        JOINT r_toes
        {
          OFFSET -0.779096 -9.8844 12.4959
          CHANNELS 6 Xposition Yposition Zposition Zrotation Xrotation Yrotation
          End Site
          {
            OFFSET 0 0 0.1
          }
        }
      }
    }
  }
}
MOTION
Frames: 6
Frame Time: 0.016667
-581.999 87.0704 2046.55 -0.81194 -1.06695 -78.7346 0 5.07867 -1.15138 0.622258 1.37021 -2.12614 0 5.61661 1.07143 0.961632 1.60203 -1.97117 -1.02604e-17 5.98978 0.11501 1.04314 2.22154 -1.87701 -1.10457e-17 6.50583 -0.443523 1.17882 2.85182 -1.88042 -1.97295e-17 7.60548 -1.50593 0.967975 2.71989 -2.06854 -2.53307e-17 9.49737 -0.914492 0.474152 2.91105 -2.19361 -2.90401e-17 10.5513 1.57691 -0.0036869 0.0922067 0.021472 -1.29193e-17 4.78644 0.715339 1.50238 7.61669 -19.1938 -1.8116e-17 4.82109 0.421791 3.6661 -3.87289 -9.07839 -2.00958e-17 4.83041 0.765062 2.58471 -2.39038 -10.1446 1.23299 -7.60731 7.53374 3.51956 1.19516 -0.89434 12.9547 3.2495 -3.26872 -75.8722 28.4498 -10.1655 29.2081 0.0598081 0.137039 11.4281 -8.24434 -72.12 24.234 0.0496219 0.113701 -0.245665 -52.9156 -3.92214 -1.23299 -7.60729 7.53365 0.249133 3.91876 1.58983 -12.9547 3.2495 -3.26872 77.8307 19.9942 11.7271 -29.2081 0.0598081 0.137039 -2.26847 -0.206442 10.9944 -24.234 0.0496218 0.113702 -2.99635 -5.81038 -0.947001 9.23673 -4.20556 2.0327 19.4429 -0.968406 1.52588 -0.852353 -38.7721 -0.655187 -16.0744 46.8244 6.11911 -2.32622 -40.4017 -6.04875 -18.2244 10.6038 16.6886 0.779096 -9.8844 12.4959 4.36299e-16 -7.83189e-16 4.74527e-19 -9.23673 -4.20556 2.0327 -1.07239 -23.8897 3.07375 0.852353 -38.7721 -0.655187 6.35614 22.7333 -0.876118 2.32622 -40.4017 -6.04875 -12.4544 -6.24867 -15.8702 -0.779096 -9.8844 12.4959 9.88018e-16 -6.33363e-16 -1.28089e-14 
-584.363 86.9469 2046.61 -1.09854 -0.795793 -79.0115 0 5.07867 -1.15138 0.757336 1.68052 -2.13258 0 5.61661 1.07143 1.08213 1.80469 -1.96535 -1.02604e-17 5.98978 0.11501 1.13423 2.29282 -1.87572 -1.10457e-17 6.50583 -0.443523 1.23382 2.7031 -1.8811 -1.97295e-17 7.60548 -1.50593 0.982103 2.45314 -2.07638 -2.53307e-17 9.49737 -0.914492 0.43982 2.56687 -2.18659 -2.90401e-17 10.5513 1.57691 -0.00500472 0.0967673 0.0223212 -1.29193e-17 4.78644 0.715339 1.57706 7.80123 -19.1972 -1.8116e-17 4.82109 0.421791 3.6877 -3.77389 -9.02872 -2.00958e-17 4.83041 0.765062 2.53896 -2.2512 -10.1216 1.23299 -7.60731 7.53374 3.54073 1.392 -0.947753 12.9547 3.2495 -3.26872 -76.0217 27.7759 -9.45432 29.2081 0.0598081 0.137039 11.4655 -8.35913 -72.6961 24.234 0.0496219 0.113701 -0.556525 -53.0005 -3.98818 -1.23299 -7.60729 7.53365 -0.196587 4.06443 1.57594 -12.9547 3.2495 -3.26872 78.1855 20.7436 11.3161 -29.2081 0.0598081 0.137039 -2.42403 -0.236906 11.758 -24.234 0.0496218 0.113702 -2.73791 -5.60391 -0.515329 9.23673 -4.20556 2.0327 20.5738 -3.54692 0.375816 -0.852353 -38.7721 -0.655187 -18.8324 51.2729 8.12289 -2.32622 -40.4017 -6.04875 -17.6477 10.3284 16.3113 0.779096 -9.8844 12.4959 7.7773e-16 -7.62061e-16 -2.0654e-17 -9.23673 -4.20556 2.0327 -0.0683867 -23.0736 3.52339 0.852353 -38.7721 -0.655187 6.53543 23.3122 -0.936087 2.32622 -40.4017 -6.04875 -13.2668 -7.45969 -16.055 -0.779096 -9.8844 12.4959 6.63459e-16 -6.23299e-16 -1.27989e-14 
-586.661 86.8742 2046.58 -1.32998 -0.491229 -79.5084 0 5.07867 -1.15138 0.871063 1.89691 -2.12178 0 5.61661 1.07143 1.18495 1.94515 -1.94448 -1.02604e-17 5.98978 0.11501 1.215 2.35075 -1.85979 -1.10457e-17 6.50583 -0.443523 1.28706 2.6243 -1.8659 -1.97295e-17 7.60548 -1.50593 1.00767 2.3072 -2.06902 -2.53307e-17 9.49737 -0.914492 0.428586 2.37168 -2.17232 -2.90401e-17 10.5513 1.57691 -0.00618734 0.0997684 0.022731 -1.29193e-17 4.78644 0.715339 1.65424 7.96978 -19.2178 -1.8116e-17 4.82109 0.421791 3.69132 -3.74871 -9.00225 -2.00958e-17 4.83041 0.765062 2.51533 -2.24105 -9.86444 1.23299 -7.60731 7.53374 3.47374 1.48956 -1.00313 12.9547 3.2495 -3.26872 -76.167 27.0255 -8.84932 29.2081 0.0598081 0.137039 11.4864 -8.42498 -73.0258 24.234 0.0496219 0.113701 -0.794539 -52.9679 -4.19329 -1.23299 -7.60729 7.53365 -0.562251 4.11155 1.57622 -12.9547 3.2495 -3.26872 78.4636 21.4235 11.1177 -29.2081 0.0598081 0.137039 -2.56776 -0.266972 12.4652 -24.234 0.0496218 0.113702 -2.51309 -5.31781 -0.177649 9.23673 -4.20556 2.0327 21.1621 -6.23036 -1.03998 -0.852353 -38.7721 -0.655187 -21.8341 55.2525 10.4564 -2.32622 -40.4017 -6.04875 -16.6581 9.37439 16.0356 0.779096 -9.8844 12.4959 1.10904e-15 -7.4961e-16 -3.31044e-17 -9.23673 -4.20556 2.0327 1.05487 -22.2328 4.43577 0.852353 -38.7721 -0.655187 6.65971 23.7107 -0.978679 2.32622 -40.4017 -6.04875 -13.8694 -8.50818 -16.1824 -0.779096 -9.8844 12.4959 -1.51727e-15 -5.30382e-16 -1.27059e-14 
-588.803 86.887 2046.46 -1.40852 -0.204738 -80.0741 0 5.07867 -1.15138 0.947568 1.97611 -2.09613 0 5.61661 1.07143 1.25543 1.98293 -1.9139 -1.02604e-17 5.98978 0.11501 1.27285 2.35442 -1.83498 -1.10457e-17 6.50583 -0.443523 1.32767 2.57029 -1.84194 -1.97295e-17 7.60548 -1.50593 1.03299 2.23913 -2.05004 -2.53307e-17 9.49737 -0.914492 0.431008 2.28062 -2.14964 -2.90401e-17 10.5513 1.57691 -0.00740969 0.101752 0.0229716 -1.29193e-17 4.78644 0.715339 1.70974 8.05367 -19.3642 -1.8116e-17 4.82109 0.421791 3.68085 -3.7467 -9.04791 -2.00958e-17 4.83041 0.765062 2.49026 -2.18147 -9.36596 1.23299 -7.60731 7.53374 3.32088 1.54067 -1.05788 12.9547 3.2495 -3.26872 -76.3017 26.2947 -8.38472 29.2081 0.0598081 0.137039 11.494 -8.44918 -73.1469 24.234 0.0496219 0.113701 -0.88447 -52.7801 -4.31022 -1.23299 -7.60729 7.53365 -0.836366 4.11126 1.59208 -12.9547 3.2495 -3.26872 78.6425 22.0137 11.0243 -29.2081 0.0598081 0.137039 -2.71082 -0.298746 13.171 -24.234 0.0496218 0.113702 -2.22396 -5.07815 0.0789075 9.23673 -4.20556 2.0327 21.2912 -9.21581 -2.58217 -0.852353 -38.7721 -0.655187 -25.0655 58.7412 13.102 -2.32622 -40.4017 -6.04875 -15.4967 8.17331 15.8632 0.779096 -9.8844 12.4959 4.5064e-16 -7.76371e-16 -6.34384e-18 -9.23673 -4.20556 2.0327 2.20214 -21.3081 5.724 0.852353 -38.7721 -0.655187 6.66029 23.7126 -0.978879 2.32622 -40.4017 -6.04875 -14.299 -9.39883 -16.267 -0.779096 -9.8844 12.4959 -2.18832e-15 -4.96909e-16 -1.26787e-14 
-590.756 86.9813 2046.26 -1.34391 0.0390034 -80.6308 0 5.07867 -1.15138 0.988123 1.98133 -2.05522 0 5.61661 1.07143 1.29261 1.96209 -1.87364 -1.02604e-17 5.98978 0.11501 1.30493 2.32077 -1.80087 -1.10457e-17 6.50583 -0.443523 1.34999 2.51353 -1.80889 -1.97295e-17 7.60548 -1.50593 1.04957 2.19502 -2.01767 -2.53307e-17 9.49737 -0.914492 0.43807 2.22545 -2.11331 -2.90401e-17 10.5513 1.57691 -0.00863364 0.103505 0.0232135 -1.29193e-17 4.78644 0.715339 1.73527 8.0518 -19.6026 -1.8116e-17 4.82109 0.421791 3.66313 -3.73147 -9.1429 -2.00958e-17 4.83041 0.765062 2.50631 -2.09054 -8.78839 1.23299 -7.60731 7.53374 3.12508 1.58612 -1.13507 12.9547 3.2495 -3.26872 -76.3836 25.6099 -8.06705 29.2081 0.0598081 0.137039 11.4912 -8.44008 -73.1014 24.234 0.0496219 0.113701 -0.916384 -52.4869 -4.37147 -1.23299 -7.60729 7.53365 -1.01171 4.11135 1.63799 -12.9547 3.2495 -3.26872 78.7339 22.5681 10.9372 -29.2081 0.0598081 0.137039 -2.86978 -0.336229 13.9574 -24.234 0.0496218 0.113702 -1.88381 -4.9186 0.328599 9.23673 -4.20556 2.0327 21.1056 -12.4644 -4.10397 -0.852353 -38.7721 -0.655187 -28.4094 61.6756 15.9482 -2.32622 -40.4017 -6.04875 -14.3281 6.94345 15.7682 0.779096 -9.8844 12.4959 -8.45142e-17 -7.99333e-16 1.66181e-17 -9.23673 -4.20556 2.0327 3.29656 -20.2165 7.15091 0.852353 -38.7721 -0.655187 6.51544 23.2479 -0.929315 2.32622 -40.4017 -6.04875 -14.6042 -10.1726 -16.3243 -0.779096 -9.8844 12.4959 -1.78906e-15 -5.09386e-16 -1.26974e-14 
-592.537 87.1337 2045.99 -1.22911 0.219326 -81.143 0 5.07867 -1.15138 0.999204 1.9976 -1.99724 0 5.61661 1.07143 1.30088 1.94698 -1.82103 -1.02604e-17 5.98978 0.11501 1.31341 2.28675 -1.75421 -1.10457e-17 6.50583 -0.443523 1.35337 2.44801 -1.76293 -1.97295e-17 7.60548 -1.50593 1.05514 2.14074 -1.96838 -2.53307e-17 9.49737 -0.914492 0.446829 2.15889 -2.05911 -2.90401e-17 10.5513 1.57691 -0.00971554 0.105638 0.0234777 -1.29193e-17 4.78644 0.715339 1.74007 8.00146 -19.8863 -1.8116e-17 4.82109 0.421791 3.65573 -3.6936 -9.25942 -2.00958e-17 4.83041 0.765062 2.59078 -2.0466 -8.28396 1.23299 -7.60731 7.53374 2.91332 1.64774 -1.26004 12.9547 3.2495 -3.26872 -76.3536 24.9895 -7.90851 29.2081 0.0598081 0.137039 11.4778 -8.39751 -72.8884 24.234 0.0496219 0.113701 -1.02961 -52.1813 -4.51531 -1.23299 -7.60729 7.53365 -1.09447 4.13777 1.7212 -12.9547 3.2495 -3.26872 78.752 23.1517 10.8163 -29.2081 0.0598081 0.137039 -3.05541 -0.382933 14.879 -24.234 0.0496218 0.113702 -1.54726 -4.82514 0.608679 9.23673 -4.20556 2.0327 20.7476 -15.8034 -5.51017 -0.852353 -38.7721 -0.655187 -31.6079 63.9823 18.7485 -2.32622 -40.4017 -6.04875 -13.2609 5.69216 15.7185 0.779096 -9.8844 12.4959 3.81848e-16 -7.84759e-16 2.04431e-18 -9.23673 -4.20556 2.0327 4.27541 -18.8795 8.49093 0.852353 -38.7721 -0.655187 6.2434 22.3668 -0.839307 2.32622 -40.4017 -6.04875 -14.8214 -10.8681 -16.3652 -0.779096 -9.8844 12.4959 -1.39655e-15 -5.27785e-16 -1.27137e-14 
